<svg xmlns="http://www.w3.org/2000/svg" width="800" height="600" viewBox="0 0 800 600">
  <style>
    rect { fill: #e8f4f8; stroke: #333; stroke-width: 1; }
    polygon { fill: #b3d9ff; stroke: #0066cc; stroke-width: 1.5; }
    text { font-family: Arial, sans-serif; font-size: 14px; fill: #000; }
    .title { font-size: 18px; font-weight: bold; }
    .label { font-size: 12px; }
  </style>
  <!-- Title -->
  <text x="400" y="30" text-anchor="middle" class="title">Real-World 3D Environment Modeling Results</text>
  <!-- Point Cloud Representation -->
  <text x="200" y="80" text-anchor="middle" font-weight="bold">Point Cloud (Raw Data)</text>
  <circle cx="150" cy="150" r="2" fill="#ff6b6b"/>
  <circle cx="160" cy="160" r="2" fill="#ff6b6b"/>
  <circle cx="170" cy="155" r="2" fill="#ff6b6b"/>
  <circle cx="145" cy="170" r="2" fill="#ff6b6b"/>
  <circle cx="155" cy="180" r="2" fill="#ff6b6b"/>
  <circle cx="175" cy="175" r="2" fill="#ff6b6b"/>
  <circle cx="200" cy="140" r="2" fill="#ff6b6b"/>
  <circle cx="210" cy="165" r="2" fill="#ff6b6b"/>
  <circle cx="220" cy="180" r="2" fill="#ff6b6b"/>
  <circle cx="240" cy="150" r="2" fill="#ff6b6b"/>
  <circle cx="250" cy="170" r="2" fill="#ff6b6b"/>
  <!-- 2.5D Elevation Grid -->
  <text x="600" y="80" text-anchor="middle" font-weight="bold">2.5D Elevation Grid</text>
  <rect x="520" y="110" width="30" height="30" fill="#90EE90"/>
  <rect x="550" y="110" width="30" height="30" fill="#7CCD7C"/>
  <rect x="580" y="110" width="30" height="30" fill="#6BB86B"/>
  <rect x="610" y="110" width="30" height="30" fill="#808080"/>
  <rect x="520" y="140" width="30" height="30" fill="#90EE90"/>
  <rect x="550" y="140" width="30" height="30" fill="#90EE90"/>
  <rect x="580" y="140" width="30" height="30" fill="#7CCD7C"/>
  <rect x="610" y="140" width="30" height="30" fill="#696969"/>
  <rect x="520" y="170" width="30" height="30" fill="#90EE90"/>
  <rect x="550" y="170" width="30" height="30" fill="#7CCD7C"/>
  <rect x="580" y="170" width="30" height="30" fill="#7CCD7C"/>
  <rect x="610" y="170" width="30" height="30" fill="#A9A9A9"/>
  <!-- Color scale -->
  <text x="100" y="280" class="label">Sparse 3D Data</text>
  <text x="550" y="280" class="label">Color = Elevation</text>
  <line x1="500" y1="300" x2="750" y2="300" stroke="#999" stroke-width="1"/>
  <rect x="500" y="290" width="20" height="20" fill="#90EE90"/>
  <text x="530" y="305" class="label">Low</text>
  <rect x="580" y="290" width="20" height="20" fill="#7CCD7C"/>
  <text x="610" y="305" class="label">Medium</text>
  <rect x="660" y="290" width="20" height="20" fill="#696969"/>
  <text x="690" y="305" class="label">High</text>
</svg>