<svg xmlns="http://www.w3.org/2000/svg" width="800" height="600" viewBox="0 0 800 600">
  <style>
    line { stroke: #333; stroke-width: 2; }
    path { stroke: #0066cc; stroke-width: 3; fill: none; }
    circle { fill: #ff6b6b; }
    rect { fill: #f0f0f0; stroke: #333; stroke-width: 1; }
    text { font-family: Arial, sans-serif; font-size: 14px; fill: #000; }
    .title { font-size: 18px; font-weight: bold; }
    .label { font-size: 12px; }
  </style>
  <!-- Title -->
  <text x="400" y="30" text-anchor="middle" class="title">Path Smoothing: Grid-Based vs B-Spline Curve</text>
  <!-- Grid -->
  <line x1="50" y1="80" x2="50" y2="380" stroke="#ccc" stroke-width="1"/>
  <line x1="90" y1="80" x2="90" y2="380" stroke="#ccc" stroke-width="1"/>
  <line x1="130" y1="80" x2="130" y2="380" stroke="#ccc" stroke-width="1"/>
  <line x1="170" y1="80" x2="170" y2="380" stroke="#ccc" stroke-width="1"/>
  <line x1="210" y1="80" x2="210" y2="380" stroke="#ccc" stroke-width="1"/>
  <line x1="250" y1="80" x2="250" y2="380" stroke="#ccc" stroke-width="1"/>
  <line x1="50" y1="80" x2="250" y2="80" stroke="#ccc" stroke-width="1"/>
  <line x1="50" y1="120" x2="250" y2="120" stroke="#ccc" stroke-width="1"/>
  <line x1="50" y1="160" x2="250" y2="160" stroke="#ccc" stroke-width="1"/>
  <line x1="50" y1="200" x2="250" y2="200" stroke="#ccc" stroke-width="1"/>
  <line x1="50" y1="240" x2="250" y2="240" stroke="#ccc" stroke-width="1"/>
  <line x1="50" y1="280" x2="250" y2="280" stroke="#ccc" stroke-width="1"/>
  <line x1="50" y1="320" x2="250" y2="320" stroke="#ccc" stroke-width="1"/>
  <line x1="50" y1="360" x2="250" y2="360" stroke="#ccc" stroke-width="1"/>
  <!-- Discrete path (angular) -->
  <text x="150" y="420" text-anchor="middle" font-weight="bold">Discrete Grid Path</text>
  <path d="M 70 100 L 90 120 L 110 140 L 130 160 L 150 180 L 170 200 L 190 220 L 210 240 L 230 260" stroke="#ff6b6b" stroke-width="2.5" fill="none"/>
  <!-- Waypoints -->
  <circle cx="70" cy="100" r="3" fill="#ff6b6b"/>
  <circle cx="230" cy="260" r="3" fill="#00cc00"/>
  <!-- Smooth path (B-spline) -->
  <text x="550" y="420" text-anchor="middle" font-weight="bold">Smoothed B-Spline Path</text>
  <path d="M 500 100 Q 520 120 540 140 Q 560 160 580 180 Q 600 200 620 220 Q 640 240 660 260" stroke="#0066cc" stroke-width="2.5" fill="none"/>
  <!-- Waypoints -->
  <circle cx="500" cy="100" r="3" fill="#ff6b6b"/>
  <circle cx="660" cy="260" r="3" fill="#00cc00"/>
  <!-- Annotations -->
  <text x="150" y="470" text-anchor="middle" class="label">Sharp corners</text>
  <text x="150" y="490" text-anchor="middle" class="label">Many waypoints</text>
  <text x="550" y="470" text-anchor="middle" class="label">Smooth trajectory</text>
  <text x="550" y="490" text-anchor="middle" class="label">Fewer waypoints</text>
</svg>